<svg xmlns="http://www.w3.org/2000/svg" width="197.482" height="51.259" viewBox="0 0 197.482 51.259">
<path fill="currentColor" d="M43.752,7.507a25.629,25.629,0,1,0,0,36.246,25.55,25.55,0,0,0,0-36.246M38.19,36.993a16.937,16.937,0,0,0-.038-22.767L42.9,9.478a23.676,23.676,0,0,1,.038,32.263ZM10.668,25.63A14.958,14.958,0,0,1,35.335,14.248L30.5,19.084a8.136,8.136,0,1,0,1.437,1.358l4.818-4.818A14.962,14.962,0,1,1,10.668,25.63m21.151,0a6.189,6.189,0,1,1-1.813-4.377,6.149,6.149,0,0,1,1.813,4.377M41.5,8.087l-4.76,4.759a16.925,16.925,0,0,0-22.531.28L9.457,8.378A23.642,23.642,0,0,1,41.5,8.087M8.068,9.785l4.759,4.76a16.934,16.934,0,0,0,.018,22.191L8.087,41.5A23.653,23.653,0,0,1,8.068,9.785M9.478,42.9l4.748-4.748a16.927,16.927,0,0,0,22.553.224l4.757,4.758A23.64,23.64,0,0,1,9.478,42.9"/>
<path fill="currentColor" d="M119.95,26.465h3.487c.043,3.138,2.484,5.273,6.625,5.273,3.312,0,5.448-1.394,5.448-3.705,0-2.875-3.008-3.094-6.32-3.53-4.1-.48-8.848-1.57-8.848-6.581,0-4.273,3.574-6.887,8.848-6.887,5.492,0,9.24,2.92,9.24,7.453H134.9c-.044-2.7-2.354-4.4-5.754-4.4-3.182,0-5.361,1.439-5.361,3.705,0,2.746,2.964,2.964,6.233,3.357,4.14.522,8.891,1.568,8.891,6.843,0,4.315-3.356,6.8-8.979,6.8-6.32,0-9.981-3.1-9.981-8.325" transform="translate(-52.2 -4.802)"/>
<path fill="currentColor" d="M191.256,12.243h3.531v2.964h.392a6.725,6.725,0,0,1,5.885-3.4,6.213,6.213,0,0,1,2.7.566v3.356a9.07,9.07,0,0,0-3.269-.653c-3.313,0-5.623,2.965-5.623,7.323V34.254h-3.618Z" transform="translate(-83.231 -5.138)"/>
<path fill="currentColor" d="M218.044,28.372c0-3.879,3.312-6.757,9.85-7.5l6.1-.742v-.872c0-2.964-2.136-4.881-5.754-4.881-3.312,0-5.492,1.614-5.448,4.359h-3.661c0-4.664,3.618-7.628,9.153-7.628,5.71,0,9.328,3.225,9.328,8.238v14.6H234V30.725a10.1,10.1,0,0,1-8.064,3.923c-4.751,0-7.889-2.485-7.889-6.277M234,25.19V23.229l-6.1.7c-4.49.567-6.233,2.31-6.233,4.358,0,2.094,1.831,3.357,4.795,3.357,4.49,0,7.541-2.746,7.541-6.451" transform="translate(-94.888 -4.835)"/>
<path fill="currentColor" d="M261.474,22.889c0-6.887,4.794-11.854,11.463-11.854,5.4,0,9.894,3.4,10.723,8.107l-3.531.48A7.237,7.237,0,0,0,272.98,14.3c-4.489,0-7.932,3.531-7.889,8.586,0,5.1,3.356,8.63,7.845,8.63a7.368,7.368,0,0,0,7.235-5.229l3.574.478c-1,4.665-5.535,8.021-10.81,8.021-6.669,0-11.507-5.013-11.463-11.9" transform="translate(-113.788 -4.802)"/>
<path fill="currentColor" d="M307.812,22.889c0-6.929,4.882-11.854,11.812-11.854a11.387,11.387,0,0,1,11.812,11.854c0,6.975-4.925,11.9-11.812,11.9-6.93,0-11.812-4.925-11.812-11.9m20.006,0c0-4.968-3.443-8.586-8.194-8.586-4.794,0-8.194,3.619-8.194,8.586,0,5.013,3.4,8.63,8.194,8.63,4.751,0,8.194-3.617,8.194-8.63" transform="translate(-133.954 -4.802)"/>
<path fill="currentColor" d="M172.3,7.1V9.981h-5.666V23.319a3.3,3.3,0,0,0,3.4,3.574,10.2,10.2,0,0,0,2.616-.436v2.921a12.522,12.522,0,0,1-3.575.566c-3.7,0-6.058-2.615-6.058-6.495V9.981h-3.575V7.1h3.575l.827-7.1h2.833V7.126Z" transform="translate(-69.384 0)"/>
</svg>
